<?xml version="1.0" encoding="UTF-8" standalone="no"?>
<!-- Created with Inkscape (http://www.inkscape.org/) -->

<svg
   version="1.1"
   id="svg2"
   width="509.89334"
   height="166.53333"
   viewBox="0 0 509.89334 166.53333"
   sodipodi:docname="Logo color copia.eps"
   xmlns:inkscape="http://www.inkscape.org/namespaces/inkscape"
   xmlns:sodipodi="http://sodipodi.sourceforge.net/DTD/sodipodi-0.dtd"
   xmlns="http://www.w3.org/2000/svg"
   xmlns:svg="http://www.w3.org/2000/svg">
  <defs
     id="defs6" />
  <sodipodi:namedview
     id="namedview4"
     pagecolor="#ffffff"
     bordercolor="#000000"
     borderopacity="0.25"
     inkscape:showpageshadow="2"
     inkscape:pageopacity="0.0"
     inkscape:pagecheckerboard="0"
     inkscape:deskcolor="#d1d1d1" />
  <g
     id="g8"
     inkscape:groupmode="layer"
     inkscape:label="ink_ext_XXXXXX"
     transform="matrix(1.3333333,0,0,-1.3333333,0,166.53333)">
    <g
       id="g10"
       transform="scale(0.1)">
      <path
         d="M 981.168,1248.99 V 1000.58 H 754.355 V 1.42969 H 485.668 V 1000.58 H 257.699 v 248.41 h 723.469"
         style="fill:#d21a38;fill-opacity:1;fill-rule:nonzero;stroke:none"
         id="path12" />
      <path
         d="m 1246.84,399.094 -37.55,-11.969 c -61.04,-19.457 -123.9,-31.66 -187.44,-36.383 L 953.652,349.012 1200.59,2.42188 h 331.55 L 1246.84,399.094"
         style="fill:#d21a38;fill-opacity:1;fill-rule:nonzero;stroke:none"
         id="path14" />
      <path
         d="m 434.141,169.48 -79.989,4.641 -12.73,71.91 -39.895,-68.859 -84.199,4.867 58.352,-50.008 -40.035,-71.3122 76.222,39.7612 75.332,-48.5386 -23.254,72.5196 70.196,45.019"
         style="fill:#fbc811;fill-opacity:1;fill-rule:nonzero;stroke:none"
         id="path16" />
      <path
         d="m 207.695,416.699 -74.55,4.321 -11.997,64.8 -37.0503,-61.957 -78.47661,4.547 54.46871,-45.156 -48.0937,-63.527 81.875,35.043 59.1559,-43.215 -10.668,64.722 65.336,40.422"
         style="fill:#fbc811;fill-opacity:1;fill-rule:nonzero;stroke:none"
         id="path18" />
      <path
         d="M 182.078,685.355 114.902,689.25 103.914,744.523 70.7109,691.809 0,695.906 49.1953,657.262 6.04688,603.238 l 73.66402,29.645 53.4101,-37.004 -9.789,55.203 58.746,34.273"
         style="fill:#fbc811;fill-opacity:1;fill-rule:nonzero;stroke:none"
         id="path20" />
      <path
         d="m 307.648,893.367 -58.437,3.387 -9.816,43.629 -28.629,-41.399 -61.512,3.563 42.969,-30.699 -37.274,-42.387 63.922,23.023 46.629,-29.429 -8.777,43.57 50.925,26.742"
         style="fill:#fbc811;fill-opacity:1;fill-rule:nonzero;stroke:none"
         id="path22" />
      <path
         d="m 1459.4,991.199 c -23.11,52.931 -56.17,98.421 -99.2,136.501 -43.06,38.07 -95.33,67.91 -157.23,88.33 -100.16,33.02 -195.69,31.24 -195.69,31.24 0,-82.88 0.41,-164.58 0,-248.028 43.57,-4.344 90.21,-16.066 132.06,-48.195 41.77,-32.109 62.68,-79.121 62.68,-140.965 v -3.559 c 0,-53.531 -19.96,-98.453 -59.9,-134.722 -39.95,-36.305 -96.08,-54.438 -168.432,-54.438 l -194.579,-0.332 c 0.411,-81.957 0,-162.324 0,-244.117 H 964.32 c 73.61,0 142.54,9.203 206.82,27.664 64.28,18.426 120.4,46.086 168.46,82.973 48.02,36.847 85.76,82.66 113.25,137.39 27.42,54.707 41.17,118.348 41.17,190.938 v 3.559 c 0,64.238 -11.54,122.812 -34.62,175.761"
         style="fill:#fbc811;fill-opacity:1;fill-rule:nonzero;stroke:none"
         id="path24" />
      <path
         d="m 1861.58,1029.36 c 10.09,0 17.93,2.65 23.5,7.96 5.57,5.31 8.36,11.89 8.36,19.72 v 0.52 c 0,9.05 -2.92,15.93 -8.75,20.63 -5.83,4.7 -13.8,7.05 -23.89,7.05 h -31.08 v -55.88 z m -72.07,92.18 h 74.68 c 10.97,0 20.76,-1.53 29.38,-4.57 8.62,-3.05 15.93,-7.36 21.93,-12.93 6.01,-5.57 10.62,-12.23 13.85,-19.97 3.22,-7.75 4.83,-16.32 4.83,-25.72 v -0.53 c 0,-10.62 -1.92,-19.93 -5.75,-27.94 -3.83,-8.01 -9.1,-14.71 -15.8,-20.11 -6.7,-5.39 -14.54,-9.44 -23.5,-12.137 -8.97,-2.703 -18.58,-4.051 -28.85,-4.051 h -30.56 V 938.75 h -40.21 v 182.79"
         style="fill:#4f4c4c;fill-opacity:1;fill-rule:nonzero;stroke:none"
         id="path26" />
      <path
         d="m 1961.59,1129.37 h 39.7 V 938.75 h -39.7 v 190.62"
         style="fill:#4f4c4c;fill-opacity:1;fill-rule:nonzero;stroke:none"
         id="path28" />
      <path
         d="m 2090.33,963.555 c 9.41,0 16.93,2.261 22.59,6.793 5.66,4.519 8.49,10.441 8.49,17.75 v 7.054 c -3.49,1.567 -7.36,2.825 -11.62,3.786 -4.27,0.953 -8.84,1.442 -13.71,1.442 -8.54,0 -15.24,-1.661 -20.11,-4.966 -4.87,-3.309 -7.31,-8.098 -7.31,-14.367 v -0.524 c 0,-5.39 2,-9.574 6,-12.531 4.01,-2.965 9.23,-4.437 15.67,-4.437 z m -12.01,-27.422 c -6.62,0 -12.84,0.914 -18.67,2.746 -5.84,1.828 -10.93,4.566 -15.28,8.226 -4.35,3.653 -7.79,8.129 -10.31,13.446 -2.53,5.308 -3.79,11.445 -3.79,18.41 v 0.519 c 0,7.661 1.39,14.278 4.18,19.844 2.78,5.566 6.66,10.186 11.62,13.846 4.96,3.65 10.88,6.39 17.76,8.22 6.87,1.83 14.49,2.75 22.85,2.75 7.13,0 13.35,-0.53 18.67,-1.57 5.31,-1.05 10.48,-2.44 15.53,-4.18 v 2.35 c 0,8.36 -2.52,14.71 -7.57,19.06 -5.05,4.35 -12.53,6.53 -22.45,6.53 -7.67,0 -14.41,-0.65 -20.24,-1.95 -5.84,-1.31 -11.97,-3.19 -18.41,-5.62 l -9.92,30.29 c 7.65,3.31 15.66,6 24.02,8.1 8.35,2.08 18.45,3.13 30.29,3.13 10.97,0 20.33,-1.35 28.07,-4.05 7.75,-2.7 14.15,-6.57 19.19,-11.62 5.23,-5.22 9.06,-11.62 11.5,-19.19 2.43,-7.57 3.65,-16.06 3.65,-25.46 v -81.21 h -38.39 v 15.141 c -4.87,-5.395 -10.7,-9.703 -17.49,-12.926 -6.79,-3.215 -15.06,-4.832 -24.81,-4.832"
         style="fill:#4f4c4c;fill-opacity:1;fill-rule:nonzero;stroke:none"
         id="path30" />
      <path
         d="m 2193.22,1078.71 h 39.69 v -20.01 c 2.26,2.98 4.74,5.84 7.44,8.55 2.7,2.72 5.7,5.13 9.01,7.23 3.3,2.11 6.96,3.77 10.97,5 4,1.23 8.53,1.84 13.58,1.84 15.14,0 26.85,-4.61 35.12,-13.84 8.27,-9.23 12.4,-21.93 12.4,-38.12 v -90.61 h -39.69 v 77.88 c 0,9.38 -2.09,16.46 -6.27,21.23 -4.17,4.77 -10.09,7.17 -17.75,7.17 -7.66,0 -13.71,-2.4 -18.15,-7.17 -4.44,-4.77 -6.66,-11.85 -6.66,-21.23 v -77.88 h -39.69 v 139.96"
         style="fill:#4f4c4c;fill-opacity:1;fill-rule:nonzero;stroke:none"
         id="path32" />
      <path
         d="m 2501.87,969.824 c 4.7,0 9.1,0.914 13.19,2.739 4.09,1.828 7.66,4.437 10.71,7.835 3.04,3.395 5.48,7.481 7.31,12.274 1.83,4.781 2.74,10.048 2.74,15.798 v 0.52 c 0,5.74 -0.91,11.01 -2.74,15.8 -1.83,4.78 -4.27,8.88 -7.31,12.27 -3.05,3.4 -6.62,6.01 -10.71,7.83 -4.09,1.84 -8.49,2.75 -13.19,2.75 -4.7,0 -9.1,-0.91 -13.18,-2.75 -4.1,-1.82 -7.71,-4.43 -10.84,-7.83 -3.14,-3.39 -5.62,-7.44 -7.44,-12.14 -1.83,-4.7 -2.75,-10.01 -2.75,-15.93 v -0.52 c 0,-5.75 0.92,-11.017 2.75,-15.798 1.82,-4.793 4.3,-8.879 7.44,-12.274 3.13,-3.398 6.74,-6.007 10.84,-7.835 4.08,-1.825 8.48,-2.739 13.18,-2.739 z m -10.18,-33.691 c -8.19,0 -16.11,1.57 -23.77,4.703 -7.66,3.133 -14.45,7.789 -20.36,13.969 -5.93,6.179 -10.67,13.75 -14.24,22.718 -3.57,8.965 -5.35,19.282 -5.35,30.947 v 0.52 c 0,11.66 1.78,21.97 5.35,30.94 3.57,8.97 8.27,16.54 14.1,22.72 5.83,6.18 12.58,10.84 20.24,13.98 7.66,3.13 15.67,4.69 24.03,4.69 10.61,0 19.36,-2.09 26.24,-6.27 6.88,-4.17 12.66,-9.05 17.36,-14.62 v 68.94 h 39.7 V 938.75 h -39.7 v 20.102 c -4.87,-6.618 -10.75,-12.055 -17.62,-16.321 -6.88,-4.258 -15.54,-6.398 -25.98,-6.398"
         style="fill:#4f4c4c;fill-opacity:1;fill-rule:nonzero;stroke:none"
         id="path34" />
      <path
         d="m 2702.42,1019.7 c -1.22,8.87 -4.36,16.06 -9.4,21.54 -5.06,5.49 -11.75,8.23 -20.11,8.23 -8.36,0 -15.11,-2.71 -20.24,-8.1 -5.14,-5.4 -8.49,-12.62 -10.05,-21.67 z m -25.59,-84.091 c -10.45,0 -20.16,1.746 -29.12,5.227 -8.97,3.48 -16.71,8.441 -23.24,14.883 -6.53,6.437 -11.62,14.058 -15.28,22.847 -3.65,8.793 -5.48,18.582 -5.48,29.384 v 0.52 c 0,9.92 1.7,19.32 5.09,28.2 3.4,8.88 8.14,16.62 14.23,23.24 6.1,6.61 13.36,11.84 21.81,15.67 8.44,3.83 17.8,5.74 28.07,5.74 11.66,0 21.76,-2.09 30.29,-6.27 8.53,-4.17 15.62,-9.78 21.28,-16.84 5.66,-7.05 9.84,-15.14 12.54,-24.28 2.7,-9.14 4.05,-18.67 4.05,-28.59 0,-1.57 -0.05,-3.23 -0.14,-4.96 -0.08,-1.751 -0.22,-3.575 -0.39,-5.493 h -97.4 c 1.91,-9.051 5.88,-15.883 11.88,-20.496 6.01,-4.614 13.45,-6.918 22.33,-6.918 6.61,0 12.53,1.125 17.76,3.394 5.22,2.262 10.61,5.914 16.18,10.969 l 22.72,-20.113 c -6.61,-8.18 -14.62,-14.578 -24.02,-19.192 -9.4,-4.605 -20.46,-6.922 -33.16,-6.922"
         style="fill:#4f4c4c;fill-opacity:1;fill-rule:nonzero;stroke:none"
         id="path36" />
      <path
         d="m 1873.65,737.344 c 9.92,0 17.54,2.347 22.85,7.051 5.31,4.703 7.97,10.968 7.97,18.8 v 0.524 c 0,8.703 -2.79,15.23 -8.36,19.586 -5.58,4.347 -13.32,6.527 -23.24,6.527 h -39.96 v -52.488 z m -80.95,88.789 h 83.56 c 23.15,0 40.91,-6.184 53.27,-18.543 10.45,-10.445 15.67,-24.379 15.67,-41.781 v -0.524 c 0,-14.801 -3.61,-26.855 -10.84,-36.164 -7.22,-9.316 -16.67,-16.152 -28.33,-20.5 l 44.65,-65.281 h -47 l -39.17,58.488 h -0.52 -31.08 V 643.34 h -40.21 v 182.793"
         style="fill:#4f4c4c;fill-opacity:1;fill-rule:nonzero;stroke:none"
         id="path38" />
      <path
         d="m 2069.23,724.285 c -1.21,8.879 -4.35,16.063 -9.4,21.543 -5.05,5.488 -11.74,8.231 -20.1,8.231 -8.36,0 -15.11,-2.704 -20.24,-8.098 -5.14,-5.398 -8.49,-12.625 -10.05,-21.676 z m -25.58,-84.086 c -10.45,0 -20.16,1.75 -29.12,5.227 -8.97,3.48 -16.71,8.441 -23.24,14.883 -6.53,6.437 -11.62,14.058 -15.28,22.847 -3.65,8.793 -5.48,18.582 -5.48,29.379 v 0.524 c 0,9.925 1.69,19.324 5.09,28.203 3.39,8.879 8.14,16.625 14.23,23.242 6.09,6.613 13.36,11.836 21.81,15.664 8.44,3.832 17.79,5.75 28.07,5.75 11.66,0 21.76,-2.094 30.29,-6.273 8.53,-4.176 15.62,-9.79 21.28,-16.84 5.66,-7.047 9.83,-15.145 12.54,-24.285 2.69,-9.137 4.04,-18.672 4.04,-28.594 0,-1.571 -0.04,-3.227 -0.13,-4.961 -0.09,-1.742 -0.22,-3.57 -0.39,-5.488 h -97.4 c 1.91,-9.051 5.87,-15.879 11.88,-20.493 6.01,-4.617 13.45,-6.921 22.33,-6.921 6.61,0 12.53,1.128 17.75,3.398 5.23,2.258 10.62,5.91 16.19,10.965 l 22.72,-20.11 c -6.62,-8.183 -14.62,-14.582 -24.02,-19.195 -9.4,-4.605 -20.46,-6.922 -33.16,-6.922"
         style="fill:#4f4c4c;fill-opacity:1;fill-rule:nonzero;stroke:none"
         id="path40" />
      <path
         d="m 2203.46,640.199 c -10.45,0 -20.16,1.922 -29.12,5.75 -8.97,3.828 -16.67,9.008 -23.11,15.539 -6.44,6.528 -11.49,14.184 -15.15,22.977 -3.65,8.789 -5.48,18.148 -5.48,28.07 v 0.524 c 0,9.925 1.83,19.324 5.48,28.203 3.66,8.879 8.71,16.625 15.15,23.242 6.44,6.613 14.14,11.836 23.11,15.664 8.96,3.832 18.84,5.75 29.64,5.75 13.23,0 24.19,-2.094 32.9,-6.273 8.7,-4.176 16.36,-9.922 22.98,-17.231 l -24.28,-26.113 c -4.53,4.699 -9.19,8.441 -13.98,11.226 -4.79,2.786 -10.75,4.18 -17.89,4.18 -5.05,0 -9.62,-1.004 -13.71,-3.004 -4.09,-2.004 -7.66,-4.746 -10.7,-8.223 -3.05,-3.488 -5.4,-7.535 -7.05,-12.148 -1.66,-4.613 -2.48,-9.527 -2.48,-14.75 v -0.523 c 0,-5.399 0.82,-10.446 2.48,-15.149 1.65,-4.699 4.05,-8.789 7.18,-12.273 3.13,-3.477 6.88,-6.223 11.23,-8.219 4.35,-2.004 9.23,-3.004 14.62,-3.004 6.62,0 12.4,1.348 17.36,4.047 4.97,2.699 9.89,6.309 14.76,10.836 l 23.24,-23.504 c -6.78,-7.488 -14.54,-13.621 -23.24,-18.406 -8.71,-4.789 -20.02,-7.188 -33.94,-7.188"
         style="fill:#4f4c4c;fill-opacity:1;fill-rule:nonzero;stroke:none"
         id="path42" />
      <path
         d="m 2332.98,640.723 c -15.15,0 -26.86,4.613 -35.12,13.84 -8.28,9.226 -12.41,21.941 -12.41,38.128 v 90.614 h 39.69 v -77.891 c 0,-9.379 2.09,-16.457 6.27,-21.226 4.18,-4.774 10.09,-7.165 17.76,-7.165 7.65,0 13.7,2.391 18.14,7.165 4.44,4.769 6.66,11.847 6.66,21.226 v 77.891 h 39.69 V 643.34 h -39.69 v 20.012 c -2.26,-2.989 -4.74,-5.832 -7.44,-8.555 -2.7,-2.715 -5.7,-5.125 -9,-7.231 -3.32,-2.109 -6.97,-3.773 -10.98,-5 -4,-1.222 -8.53,-1.843 -13.57,-1.843"
         style="fill:#4f4c4c;fill-opacity:1;fill-rule:nonzero;stroke:none"
         id="path44" />
      <path
         d="m 2522.29,674.414 c 4.7,0 9.1,0.914 13.19,2.738 4.08,1.832 7.69,4.442 10.84,7.836 3.13,3.395 5.61,7.442 7.44,12.141 1.83,4.699 2.74,10.012 2.74,15.93 v 0.523 c 0,5.742 -0.91,11.008 -2.74,15.801 -1.83,4.781 -4.31,8.875 -7.44,12.269 -3.15,3.395 -6.76,6.008 -10.84,7.832 -4.09,1.832 -8.49,2.743 -13.19,2.743 -4.69,0 -9.09,-0.911 -13.19,-2.743 -4.09,-1.824 -7.66,-4.437 -10.7,-7.832 -3.05,-3.394 -5.49,-7.488 -7.31,-12.269 -1.83,-4.793 -2.74,-10.059 -2.74,-15.801 v -0.523 c 0,-5.746 0.91,-11.012 2.74,-15.797 1.82,-4.789 4.26,-8.879 7.31,-12.274 3.04,-3.394 6.61,-6.004 10.7,-7.836 4.1,-1.824 8.5,-2.738 13.19,-2.738 z m -73.11,108.891 h 39.69 v -20.11 c 4.87,6.618 10.74,12.055 17.63,16.325 6.86,4.257 15.53,6.398 25.98,6.398 8.17,0 16.09,-1.57 23.76,-4.703 7.66,-3.133 14.45,-7.793 20.36,-13.973 5.92,-6.179 10.67,-13.75 14.23,-22.719 3.57,-8.968 5.36,-19.281 5.36,-30.941 v -0.523 c 0,-11.664 -1.79,-21.981 -5.36,-30.946 -3.56,-8.968 -8.27,-16.539 -14.09,-22.718 -5.84,-6.176 -12.59,-10.836 -20.24,-13.969 -7.67,-3.129 -15.67,-4.703 -24.02,-4.703 -10.63,0 -19.37,2.093 -26.24,6.269 -6.88,4.184 -12.67,9.055 -17.37,14.625 v -60.062 h -39.69 v 181.75"
         style="fill:#4f4c4c;fill-opacity:1;fill-rule:nonzero;stroke:none"
         id="path46" />
      <path
         d="m 2717.35,724.285 c -1.22,8.879 -4.35,16.063 -9.4,21.543 -5.05,5.488 -11.75,8.231 -20.11,8.231 -8.35,0 -15.1,-2.704 -20.24,-8.098 -5.13,-5.398 -8.48,-12.625 -10.05,-21.676 z m -25.59,-84.086 c -10.44,0 -20.15,1.75 -29.12,5.227 -8.96,3.48 -16.7,8.441 -23.24,14.883 -6.52,6.437 -11.61,14.058 -15.27,22.847 -3.66,8.793 -5.49,18.582 -5.49,29.379 v 0.524 c 0,9.925 1.7,19.324 5.1,28.203 3.39,8.879 8.13,16.625 14.23,23.242 6.09,6.613 13.36,11.836 21.81,15.664 8.44,3.832 17.79,5.75 28.06,5.75 11.66,0 21.77,-2.094 30.3,-6.273 8.52,-4.176 15.62,-9.79 21.28,-16.84 5.66,-7.047 9.83,-15.145 12.53,-24.285 2.7,-9.137 4.05,-18.672 4.05,-28.594 0,-1.571 -0.04,-3.227 -0.13,-4.961 -0.09,-1.742 -0.22,-3.57 -0.39,-5.488 h -97.4 c 1.91,-9.051 5.87,-15.879 11.88,-20.493 6,-4.617 13.44,-6.921 22.32,-6.921 6.62,0 12.54,1.128 17.76,3.398 5.22,2.258 10.62,5.91 16.19,10.965 l 22.72,-20.11 c -6.62,-8.183 -14.62,-14.582 -24.02,-19.195 -9.4,-4.605 -20.47,-6.922 -33.17,-6.922"
         style="fill:#4f4c4c;fill-opacity:1;fill-rule:nonzero;stroke:none"
         id="path48" />
      <path
         d="m 2785.51,783.305 h 39.69 v -28.203 c 4,9.57 9.49,17.234 16.45,22.98 6.96,5.742 16.36,8.356 28.2,7.836 v -41.523 h -2.08 c -13.24,0 -23.64,-4.008 -31.21,-12.012 -7.58,-8.008 -11.36,-20.457 -11.36,-37.34 V 643.34 h -39.69 v 139.965"
         style="fill:#4f4c4c;fill-opacity:1;fill-rule:nonzero;stroke:none"
         id="path50" />
      <path
         d="m 2946.37,668.145 c 9.4,0 16.92,2.261 22.58,6.793 5.66,4.523 8.49,10.445 8.49,17.753 v 7.051 c -3.49,1.567 -7.36,2.824 -11.62,3.785 -4.27,0.953 -8.84,1.438 -13.71,1.438 -8.53,0 -15.24,-1.656 -20.11,-4.961 -4.87,-3.309 -7.31,-8.098 -7.31,-14.367 v -0.52 c 0,-5.394 2,-9.574 6.01,-12.531 4,-2.965 9.22,-4.441 15.67,-4.441 z m -12.02,-27.422 c -6.62,0 -12.84,0.914 -18.67,2.746 -5.83,1.828 -10.92,4.566 -15.27,8.226 -4.36,3.653 -7.8,8.129 -10.32,13.45 -2.52,5.308 -3.79,11.441 -3.79,18.406 v 0.519 c 0,7.66 1.39,14.278 4.18,19.848 2.78,5.57 6.66,10.187 11.62,13.844 4.96,3.652 10.88,6.394 17.76,8.222 6.87,1.829 14.49,2.743 22.85,2.743 7.13,0 13.36,-0.524 18.67,-1.567 5.31,-1.047 10.49,-2.441 15.54,-4.176 v 2.348 c 0,8.356 -2.53,14.707 -7.58,19.063 -5.05,4.351 -12.53,6.527 -22.45,6.527 -7.66,0 -14.41,-0.652 -20.24,-1.957 -5.84,-1.305 -11.97,-3.18 -18.42,-5.617 l -9.92,30.293 c 7.66,3.304 15.67,6.004 24.03,8.097 8.36,2.086 18.45,3.133 30.29,3.133 10.97,0 20.33,-1.351 28.07,-4.051 7.74,-2.699 14.14,-6.57 19.2,-11.617 5.22,-5.223 9.05,-11.621 11.48,-19.195 2.45,-7.57 3.66,-16.059 3.66,-25.461 V 643.34 h -38.39 v 15.14 c -4.87,-5.39 -10.7,-9.703 -17.49,-12.925 -6.79,-3.215 -15.06,-4.832 -24.81,-4.832"
         style="fill:#4f4c4c;fill-opacity:1;fill-rule:nonzero;stroke:none"
         id="path52" />
      <path
         d="m 3115.32,640.199 c -10.45,0 -20.16,1.922 -29.12,5.75 -8.97,3.828 -16.68,9.008 -23.11,15.539 -6.44,6.528 -11.49,14.184 -15.15,22.977 -3.65,8.789 -5.48,18.148 -5.48,28.07 v 0.524 c 0,9.925 1.83,19.324 5.48,28.203 3.66,8.879 8.71,16.625 15.15,23.242 6.43,6.613 14.14,11.836 23.11,15.664 8.96,3.832 18.84,5.75 29.64,5.75 13.23,0 24.19,-2.094 32.9,-6.273 8.7,-4.176 16.36,-9.922 22.98,-17.231 l -24.28,-26.113 c -4.53,4.699 -9.19,8.441 -13.97,11.226 -4.8,2.786 -10.76,4.18 -17.9,4.18 -5.05,0 -9.62,-1.004 -13.7,-3.004 -4.1,-2.004 -7.67,-4.746 -10.71,-8.223 -3.05,-3.488 -5.4,-7.535 -7.05,-12.148 -1.65,-4.613 -2.48,-9.527 -2.48,-14.75 v -0.523 c 0,-5.399 0.83,-10.446 2.48,-15.149 1.65,-4.699 4.05,-8.789 7.18,-12.273 3.14,-3.477 6.87,-6.223 11.23,-8.219 4.35,-2.004 9.23,-3.004 14.63,-3.004 6.61,0 12.4,1.348 17.36,4.047 4.96,2.699 9.88,6.309 14.76,10.836 l 23.24,-23.504 c -6.79,-7.488 -14.55,-13.621 -23.24,-18.406 -8.72,-4.789 -20.03,-7.188 -33.95,-7.188"
         style="fill:#4f4c4c;fill-opacity:1;fill-rule:nonzero;stroke:none"
         id="path54" />
      <path
         d="m 3200.19,783.305 h 39.69 V 643.34 h -39.69 z m -1.05,50.656 h 41.78 v -35.25 h -41.78 v 35.25"
         style="fill:#4f4c4c;fill-opacity:1;fill-rule:nonzero;stroke:none"
         id="path56" />
      <path
         d="m 3360.52,844.934 34.2,-14.887 -33.43,-31.336 h -30.28 z m -14.11,-170.52 c 5.75,0 10.84,1 15.28,3.004 4.44,1.996 8.23,4.742 11.36,8.219 3.13,3.484 5.53,7.531 7.18,12.148 1.65,4.61 2.48,9.528 2.48,14.75 v 0.524 c 0,5.222 -0.87,10.14 -2.61,14.754 -1.74,4.613 -4.27,8.703 -7.57,12.273 -3.31,3.566 -7.23,6.398 -11.76,8.484 -4.53,2.09 -9.49,3.137 -14.88,3.137 -5.75,0 -10.84,-1.004 -15.28,-3.004 -4.44,-2.004 -8.22,-4.746 -11.36,-8.223 -3.13,-3.488 -5.53,-7.535 -7.17,-12.148 -1.66,-4.613 -2.48,-9.527 -2.48,-14.75 v -0.523 c 0,-5.223 0.86,-10.145 2.6,-14.754 1.74,-4.617 4.27,-8.707 7.58,-12.274 3.3,-3.57 7.18,-6.398 11.62,-8.484 4.44,-2.086 9.44,-3.133 15.01,-3.133 z m -0.52,-34.215 c -10.79,0 -20.81,1.879 -30.03,5.621 -9.23,3.743 -17.19,8.879 -23.89,15.407 -6.71,6.527 -11.97,14.187 -15.8,22.984 -3.84,8.781 -5.75,18.227 -5.75,28.324 v 0.524 c 0,10.093 1.91,19.539 5.75,28.332 3.83,8.793 9.13,16.496 15.93,23.113 6.79,6.613 14.79,11.836 24.02,15.664 9.23,3.832 19.33,5.75 30.29,5.75 10.79,0 20.81,-1.879 30.03,-5.617 9.23,-3.746 17.19,-8.879 23.89,-15.406 6.7,-6.532 11.97,-14.192 15.8,-22.985 3.84,-8.789 5.75,-18.234 5.75,-28.328 v -0.523 c 0,-10.098 -1.91,-19.543 -5.75,-28.329 -3.83,-8.796 -9.13,-16.5 -15.93,-23.113 -6.79,-6.617 -14.8,-11.84 -24.02,-15.668 -9.23,-3.828 -19.32,-5.75 -30.29,-5.75"
         style="fill:#4f4c4c;fill-opacity:1;fill-rule:nonzero;stroke:none"
         id="path58" />
      <path
         d="m 3450.6,783.305 h 39.69 v -20.008 c 2.26,2.976 4.74,5.832 7.44,8.547 2.7,2.715 5.71,5.121 9.02,7.226 3.3,2.11 6.96,3.774 10.96,5 4.01,1.231 8.54,1.848 13.58,1.848 15.15,0 26.85,-4.617 35.13,-13.844 8.26,-9.226 12.4,-21.933 12.4,-38.125 V 643.34 h -39.7 v 77.883 c 0,9.375 -2.08,16.453 -6.26,21.23 -4.18,4.774 -10.1,7.164 -17.75,7.164 -7.67,0 -13.72,-2.39 -18.16,-7.164 -4.43,-4.777 -6.66,-11.855 -6.66,-21.23 V 643.34 h -39.69 v 139.965"
         style="fill:#4f4c4c;fill-opacity:1;fill-rule:nonzero;stroke:none"
         id="path60" />
      <path
         d="m 3602.32,617.484 c 18.38,1.918 26.87,10.536 25.49,25.856 h -16.09 v 41.777 h 42.04 v -35.25 c 0,-17.234 -4.15,-29.64 -12.46,-37.211 -8.31,-7.578 -20.17,-11.449 -35.59,-11.621 l -3.39,16.449"
         style="fill:#4f4c4c;fill-opacity:1;fill-rule:nonzero;stroke:none"
         id="path62" />
      <path
         d="m 1829.67,486.098 h -55.62 v 37.086 h 151.46 v -37.086 h -55.62 V 340.387 h -40.22 v 145.711"
         style="fill:#4f4c4c;fill-opacity:1;fill-rule:nonzero;stroke:none"
         id="path64" />
      <path
         d="m 1952.14,480.355 h 39.7 v -28.207 c 4,9.575 9.48,17.243 16.44,22.981 6.97,5.75 16.37,8.359 28.21,7.836 v -41.52 h -2.09 c -13.23,0 -23.63,-4.007 -31.2,-12.015 -7.58,-8.012 -11.36,-20.457 -11.36,-37.34 v -51.703 h -39.7 v 139.968"
         style="fill:#4f4c4c;fill-opacity:1;fill-rule:nonzero;stroke:none"
         id="path66" />
      <path
         d="m 2113,365.191 c 9.4,0 16.93,2.262 22.59,6.789 5.66,4.524 8.48,10.446 8.48,17.758 v 7.051 c -3.48,1.563 -7.35,2.828 -11.62,3.785 -4.26,0.953 -8.83,1.438 -13.7,1.438 -8.54,0 -15.24,-1.657 -20.11,-4.961 -4.88,-3.313 -7.31,-8.098 -7.31,-14.36 v -0.523 c 0,-5.398 1.99,-9.582 6,-12.539 4.01,-2.957 9.23,-4.438 15.67,-4.438 z m -12.01,-27.414 c -6.62,0 -12.84,0.914 -18.67,2.735 -5.84,1.832 -10.93,4.578 -15.28,8.23 -4.35,3.653 -7.79,8.137 -10.32,13.446 -2.52,5.308 -3.78,11.449 -3.78,18.41 v 0.527 c 0,7.652 1.39,14.27 4.18,19.844 2.78,5.566 6.66,10.179 11.62,13.84 4.96,3.652 10.88,6.398 17.75,8.222 6.88,1.828 14.5,2.742 22.86,2.742 7.13,0 13.35,-0.519 18.66,-1.562 5.31,-1.043 10.49,-2.445 15.54,-4.184 v 2.352 c 0,8.359 -2.52,14.711 -7.57,19.066 -5.05,4.348 -12.53,6.528 -22.46,6.528 -7.66,0 -14.4,-0.653 -20.23,-1.961 -5.84,-1.309 -11.98,-3.176 -18.42,-5.61 l -9.92,30.289 c 7.66,3.305 15.67,6.004 24.03,8.098 8.35,2.09 18.45,3.133 30.29,3.133 10.96,0 20.32,-1.356 28.07,-4.047 7.74,-2.699 14.14,-6.57 19.19,-11.625 5.23,-5.219 9.05,-11.621 11.49,-19.191 2.44,-7.571 3.66,-16.059 3.66,-25.457 v -81.215 h -38.39 v 15.144 c -4.87,-5.398 -10.7,-9.711 -17.5,-12.929 -6.78,-3.215 -15.05,-4.825 -24.8,-4.825"
         style="fill:#4f4c4c;fill-opacity:1;fill-rule:nonzero;stroke:none"
         id="path68" />
      <path
         d="m 2215.89,480.355 h 39.69 v -20.011 c 2.26,2.98 4.74,5.832 7.44,8.547 2.7,2.722 5.7,5.129 9.01,7.23 3.3,2.109 6.96,3.774 10.97,4.996 4,1.235 8.52,1.848 13.58,1.848 15.14,0 26.85,-4.613 35.12,-13.84 8.26,-9.227 12.4,-21.941 12.4,-38.125 v -90.613 h -39.69 v 77.886 c 0,9.379 -2.09,16.457 -6.27,21.231 -4.18,4.769 -10.09,7.16 -17.76,7.16 -7.66,0 -13.7,-2.391 -18.14,-7.16 -4.44,-4.774 -6.66,-11.852 -6.66,-21.231 v -77.886 h -39.69 v 139.968"
         style="fill:#4f4c4c;fill-opacity:1;fill-rule:nonzero;stroke:none"
         id="path70" />
      <path
         d="m 2427.66,337.777 c -9.92,0 -20.07,1.692 -30.42,5.086 -10.36,3.399 -20.24,8.75 -29.64,16.067 l 16.97,26.105 c 7.66,-5.574 15.28,-9.75 22.85,-12.531 7.58,-2.781 14.67,-4.176 21.28,-4.176 5.75,0 9.97,0.953 12.67,2.867 2.7,1.914 4.05,4.442 4.05,7.578 v 0.524 c 0,2.086 -0.78,3.914 -2.35,5.48 -1.57,1.567 -3.7,2.914 -6.4,4.047 -2.7,1.133 -5.79,2.223 -9.27,3.266 -3.49,1.047 -7.14,2.172 -10.97,3.398 -4.87,1.391 -9.79,3.082 -14.75,5.086 -4.97,2 -9.45,4.617 -13.45,7.836 -4.01,3.215 -7.27,7.18 -9.8,11.883 -2.52,4.695 -3.78,10.445 -3.78,17.234 v 0.524 c 0,7.129 1.35,13.445 4.05,18.929 2.7,5.489 6.35,10.141 10.97,13.973 4.6,3.828 10,6.703 16.19,8.617 6.17,1.91 12.83,2.871 19.97,2.871 8.88,0 17.89,-1.433 27.03,-4.308 9.14,-2.867 17.54,-6.828 25.2,-11.883 l -15.15,-27.422 c -6.96,4.008 -13.75,7.184 -20.37,9.535 -6.61,2.356 -12.44,3.528 -17.49,3.528 -4.88,0 -8.53,-0.918 -10.97,-2.746 -2.44,-1.825 -3.66,-4.137 -3.66,-6.922 v -0.52 c 0,-1.914 0.79,-3.613 2.36,-5.09 1.56,-1.48 3.65,-2.875 6.26,-4.183 2.62,-1.301 5.62,-2.563 9.01,-3.782 3.4,-1.214 7.01,-2.441 10.84,-3.66 4.87,-1.566 9.83,-3.433 14.88,-5.609 5.05,-2.18 9.58,-4.832 13.58,-7.965 4,-3.133 7.31,-6.965 9.93,-11.488 2.61,-4.531 3.91,-10.012 3.91,-16.457 v -0.52 c 0,-7.836 -1.35,-14.582 -4.05,-20.238 -2.7,-5.656 -6.48,-10.316 -11.36,-13.969 -4.87,-3.652 -10.57,-6.398 -17.1,-8.23 -6.53,-1.821 -13.54,-2.735 -21.02,-2.735"
         style="fill:#4f4c4c;fill-opacity:1;fill-rule:nonzero;stroke:none"
         id="path72" />
      <path
         d="m 2516.44,446.406 h -16.45 v 32.641 h 16.45 v 8.879 c 0,15.148 3.75,26.461 11.23,33.949 7.32,7.313 18.02,10.965 32.12,10.965 6.27,0 11.62,-0.348 16.06,-1.043 4.44,-0.695 8.49,-1.656 12.14,-2.875 v -32.895 c -2.96,1.043 -5.83,1.868 -8.61,2.481 -2.79,0.601 -5.92,0.906 -9.4,0.906 -9.58,0 -14.37,-5.047 -14.37,-15.141 v -5.484 h 32.12 v -32.383 h -31.59 V 340.387 h -39.7 v 106.019"
         style="fill:#4f4c4c;fill-opacity:1;fill-rule:nonzero;stroke:none"
         id="path74" />
      <path
         d="m 2678.6,371.461 c 5.75,0 10.84,0.996 15.28,3 4.44,2 8.23,4.742 11.36,8.23 3.13,3.477 5.52,7.524 7.18,12.137 1.65,4.613 2.48,9.535 2.48,14.758 v 0.519 c 0,5.227 -0.87,10.141 -2.61,14.754 -1.74,4.614 -4.27,8.707 -7.57,12.278 -3.31,3.566 -7.23,6.394 -11.75,8.484 -4.53,2.086 -9.49,3.137 -14.89,3.137 -5.74,0 -10.84,-1.004 -15.28,-3.008 -4.44,-1.996 -8.22,-4.742 -11.35,-8.223 -3.14,-3.488 -5.53,-7.531 -7.19,-12.144 -1.65,-4.613 -2.48,-9.531 -2.48,-14.754 v -0.524 c 0,-5.218 0.87,-10.14 2.62,-14.753 1.73,-4.614 4.26,-8.707 7.57,-12.266 3.3,-3.578 7.18,-6.398 11.62,-8.496 4.44,-2.086 9.44,-3.129 15.01,-3.129 z m -0.52,-34.207 c -10.79,0 -20.8,1.867 -30.03,5.609 -9.23,3.746 -17.19,8.879 -23.89,15.407 -6.71,6.527 -11.97,14.187 -15.8,22.984 -3.83,8.789 -5.75,18.234 -5.75,28.332 v 0.519 c 0,10.098 1.92,19.543 5.75,28.336 3.83,8.789 9.14,16.489 15.93,23.114 6.79,6.609 14.79,11.836 24.02,15.664 9.23,3.832 19.33,5.746 30.29,5.746 10.79,0 20.8,-1.875 30.03,-5.613 9.23,-3.75 17.19,-8.875 23.9,-15.403 6.7,-6.535 11.97,-14.195 15.8,-22.984 3.82,-8.797 5.74,-18.242 5.74,-28.336 v -0.524 c 0,-10.097 -1.92,-19.542 -5.74,-28.332 -3.83,-8.793 -9.14,-16.492 -15.93,-23.109 -6.79,-6.617 -14.8,-11.844 -24.03,-15.672 -9.23,-3.824 -19.32,-5.738 -30.29,-5.738"
         style="fill:#4f4c4c;fill-opacity:1;fill-rule:nonzero;stroke:none"
         id="path76" />
      <path
         d="m 2782.79,480.355 h 39.7 v -28.207 c 4,9.575 9.48,17.243 16.45,22.981 6.96,5.75 16.36,8.359 28.2,7.836 v -41.52 h -2.09 c -13.23,0 -23.63,-4.007 -31.2,-12.015 -7.58,-8.012 -11.36,-20.457 -11.36,-37.34 v -51.703 h -39.7 v 139.968"
         style="fill:#4f4c4c;fill-opacity:1;fill-rule:nonzero;stroke:none"
         id="path78" />
      <path
         d="m 2891.95,480.355 h 39.69 v -20.011 c 2.26,2.98 4.74,5.832 7.44,8.547 2.7,2.722 5.7,5.129 9.01,7.23 3.3,2.109 7.01,3.774 11.1,4.996 4.09,1.235 8.66,1.848 13.71,1.848 9.22,0 17.19,-1.93 23.89,-5.785 6.7,-3.86 11.88,-9.379 15.54,-16.571 6.09,7.36 12.88,12.934 20.37,16.7 7.48,3.773 16.01,5.656 25.59,5.656 14.8,0 26.37,-4.356 34.73,-13.055 8.36,-8.711 12.54,-21.508 12.54,-38.387 v -91.136 h -39.7 v 77.886 c 0,9.379 -2,16.457 -6.01,21.231 -4,4.769 -9.75,7.16 -17.23,7.16 -7.49,0 -13.36,-2.391 -17.63,-7.16 -4.26,-4.774 -6.39,-11.852 -6.39,-21.231 v -77.886 h -39.7 v 77.886 c 0,9.379 -2,16.457 -6,21.231 -4.01,4.769 -9.75,7.16 -17.24,7.16 -7.48,0 -13.36,-2.391 -17.62,-7.16 -4.27,-4.774 -6.4,-11.852 -6.4,-21.231 v -77.886 h -39.69 v 139.968"
         style="fill:#4f4c4c;fill-opacity:1;fill-rule:nonzero;stroke:none"
         id="path80" />
      <path
         d="m 3191.73,365.191 c 9.4,0 16.92,2.262 22.59,6.789 5.65,4.524 8.48,10.446 8.48,17.758 v 7.051 c -3.48,1.563 -7.35,2.828 -11.62,3.785 -4.26,0.953 -8.84,1.438 -13.71,1.438 -8.53,0 -15.23,-1.657 -20.11,-4.961 -4.87,-3.313 -7.31,-8.098 -7.31,-14.36 v -0.523 c 0,-5.398 2,-9.582 6.01,-12.539 4,-2.957 9.23,-4.438 15.67,-4.438 z m -12.01,-27.414 c -6.62,0 -12.85,0.914 -18.68,2.735 -5.83,1.832 -10.92,4.578 -15.27,8.23 -4.36,3.653 -7.8,8.137 -10.32,13.446 -2.52,5.308 -3.78,11.449 -3.78,18.41 v 0.527 c 0,7.652 1.39,14.27 4.17,19.844 2.79,5.566 6.66,10.179 11.62,13.84 4.97,3.652 10.88,6.398 17.76,8.222 6.88,1.828 14.5,2.742 22.85,2.742 7.14,0 13.36,-0.519 18.67,-1.562 5.31,-1.043 10.49,-2.445 15.54,-4.184 v 2.352 c 0,8.359 -2.53,14.711 -7.57,19.066 -5.05,4.348 -12.54,6.528 -22.46,6.528 -7.66,0 -14.41,-0.653 -20.24,-1.961 -5.83,-1.309 -11.97,-3.176 -18.41,-5.61 l -9.92,30.289 c 7.66,3.305 15.67,6.004 24.02,8.098 8.36,2.09 18.46,3.133 30.3,3.133 10.96,0 20.32,-1.356 28.07,-4.047 7.74,-2.699 14.14,-6.57 19.19,-11.625 5.22,-5.219 9.05,-11.621 11.49,-19.191 2.44,-7.571 3.66,-16.059 3.66,-25.457 v -81.215 h -38.39 v 15.144 c -4.88,-5.398 -10.71,-9.711 -17.5,-12.929 -6.79,-3.215 -15.06,-4.825 -24.8,-4.825"
         style="fill:#4f4c4c;fill-opacity:1;fill-rule:nonzero;stroke:none"
         id="path82" />
      <path
         d="m 3360.68,337.254 c -10.45,0 -20.15,1.914 -29.12,5.738 -8.97,3.828 -16.67,9.016 -23.11,15.543 -6.44,6.528 -11.49,14.188 -15.14,22.977 -3.66,8.789 -5.49,18.148 -5.49,28.074 v 0.519 c 0,9.922 1.83,19.325 5.49,28.204 3.65,8.875 8.7,16.621 15.14,23.246 6.44,6.609 14.14,11.836 23.11,15.664 8.97,3.832 18.85,5.746 29.64,5.746 13.23,0 24.2,-2.086 32.9,-6.27 8.71,-4.175 16.37,-9.922 22.98,-17.226 l -24.28,-26.121 c -4.53,4.703 -9.19,8.445 -13.97,11.226 -4.79,2.785 -10.75,4.184 -17.89,4.184 -5.05,0 -9.62,-1.004 -13.71,-3.008 -4.09,-1.996 -7.66,-4.742 -10.7,-8.223 -3.05,-3.488 -5.4,-7.531 -7.06,-12.144 -1.65,-4.613 -2.48,-9.531 -2.48,-14.754 v -0.524 c 0,-5.398 0.83,-10.445 2.48,-15.14 1.66,-4.703 4.05,-8.797 7.18,-12.274 3.14,-3.488 6.88,-6.23 11.23,-8.23 4.35,-2.004 9.23,-3 14.63,-3 6.61,0 12.4,1.344 17.36,4.047 4.97,2.699 9.88,6.305 14.76,10.836 l 23.24,-23.504 c -6.79,-7.488 -14.54,-13.621 -23.24,-18.41 -8.71,-4.785 -20.03,-7.176 -33.95,-7.176"
         style="fill:#4f4c4c;fill-opacity:1;fill-rule:nonzero;stroke:none"
         id="path84" />
      <path
         d="m 3445.55,480.355 h 39.69 V 340.387 h -39.69 z m -1.05,50.657 h 41.78 v -35.25 h -41.78 v 35.25"
         style="fill:#4f4c4c;fill-opacity:1;fill-rule:nonzero;stroke:none"
         id="path86" />
      <path
         d="m 3605.88,541.984 34.21,-14.882 -33.42,-31.34 h -30.3 z m -14.1,-170.523 c 5.75,0 10.84,0.996 15.28,3 4.43,2 8.22,4.742 11.35,8.23 3.14,3.477 5.53,7.524 7.19,12.137 1.65,4.613 2.48,9.535 2.48,14.758 v 0.519 c 0,5.227 -0.87,10.141 -2.61,14.754 -1.75,4.614 -4.27,8.707 -7.58,12.278 -3.31,3.566 -7.22,6.394 -11.75,8.484 -4.53,2.086 -9.49,3.137 -14.88,3.137 -5.75,0 -10.84,-1.004 -15.28,-3.008 -4.44,-1.996 -8.22,-4.742 -11.36,-8.223 -3.13,-3.488 -5.53,-7.531 -7.18,-12.144 -1.66,-4.613 -2.48,-9.531 -2.48,-14.754 v -0.524 c 0,-5.218 0.87,-10.14 2.61,-14.753 1.74,-4.614 4.26,-8.707 7.57,-12.266 3.31,-3.578 7.19,-6.398 11.63,-8.496 4.44,-2.086 9.43,-3.129 15.01,-3.129 z m -0.52,-34.207 c -10.8,0 -20.81,1.867 -30.03,5.609 -9.23,3.746 -17.19,8.879 -23.9,15.407 -6.7,6.527 -11.97,14.187 -15.79,22.984 -3.83,8.789 -5.75,18.234 -5.75,28.332 v 0.519 c 0,10.098 1.92,19.543 5.75,28.336 3.82,8.789 9.14,16.489 15.92,23.114 6.79,6.609 14.8,11.836 24.03,15.664 9.22,3.832 19.32,5.746 30.29,5.746 10.79,0 20.8,-1.875 30.03,-5.613 9.23,-3.75 17.19,-8.875 23.89,-15.403 6.7,-6.535 11.97,-14.195 15.8,-22.984 3.83,-8.797 5.75,-18.242 5.75,-28.336 v -0.524 c 0,-10.097 -1.92,-19.542 -5.75,-28.332 -3.83,-8.793 -9.14,-16.492 -15.93,-23.109 -6.79,-6.617 -14.79,-11.844 -24.02,-15.672 -9.23,-3.824 -19.32,-5.738 -30.29,-5.738"
         style="fill:#4f4c4c;fill-opacity:1;fill-rule:nonzero;stroke:none"
         id="path88" />
      <path
         d="m 3695.97,480.355 h 39.69 v -20.011 c 2.26,2.98 4.74,5.832 7.44,8.547 2.7,2.722 5.7,5.129 9.01,7.23 3.3,2.109 6.96,3.774 10.97,4.996 4,1.235 8.52,1.848 13.58,1.848 15.14,0 26.85,-4.613 35.12,-13.84 8.26,-9.227 12.4,-21.941 12.4,-38.125 v -90.613 h -39.69 v 77.886 c 0,9.379 -2.09,16.457 -6.27,21.231 -4.17,4.769 -10.09,7.16 -17.76,7.16 -7.66,0 -13.7,-2.391 -18.14,-7.16 -4.44,-4.774 -6.66,-11.852 -6.66,-21.231 v -77.886 h -39.69 v 139.968"
         style="fill:#4f4c4c;fill-opacity:1;fill-rule:nonzero;stroke:none"
         id="path90" />
      <path
         d="m 1827.45,0 c -7.31,0 -13.75,0.871094 -19.32,2.60938 -5.57,1.74218 -10.88,4.08984 -15.93,7.05078 l 13.32,28.73044 c 2.61,-1.5703 5.44,-2.8711 8.49,-3.9218 3.04,-1.0469 5.87,-1.5704 8.48,-1.5704 3.48,0 6.23,0.6602 8.23,1.961 2,1.3125 3.87,3.6992 5.61,7.1797 L 1781.5,182.531 h 42.04 l 31.85,-95.3201 30.55,95.3201 h 41.27 l -53.8,-143.3591 c -2.61,-7.1328 -5.4,-13.1914 -8.35,-18.1524 -2.97,-4.9609 -6.23,-9.0078 -9.8,-12.14059 -3.57,-3.14063 -7.61,-5.39063 -12.14,-6.78907 C 1838.59,0.699219 1833.37,0 1827.45,0"
         style="fill:#4f4c4c;fill-opacity:1;fill-rule:nonzero;stroke:none"
         id="path92" />
      <path
         d="m 2114.16,136.57 c 9.93,0 17.54,2.352 22.86,7.051 5.31,4.699 7.96,10.969 7.96,18.809 v 0.519 c 0,8.699 -2.79,15.231 -8.35,19.582 -5.58,4.348 -13.32,6.528 -23.24,6.528 h -39.96 V 136.57 Z m -80.95,88.789 h 83.57 c 23.15,0 40.91,-6.179 53.27,-18.539 10.45,-10.449 15.67,-24.379 15.67,-41.789 v -0.519 c 0,-14.801 -3.62,-26.852 -10.84,-36.16 -7.22,-9.321 -16.67,-16.161 -28.33,-20.512 l 44.66,-65.2814 h -47.01 l -39.17,58.5004 h -0.52 -31.08 V 42.5586 h -40.22 V 225.359"
         style="fill:#4f4c4c;fill-opacity:1;fill-rule:nonzero;stroke:none"
         id="path94" />
      <path
         d="m 2309.75,123.512 c -1.22,8.879 -4.35,16.066 -9.4,21.547 -5.05,5.48 -11.75,8.222 -20.11,8.222 -8.35,0 -15.1,-2.703 -20.24,-8.09 -5.13,-5.402 -8.48,-12.621 -10.05,-21.679 z m -25.59,-84.0823 c -10.44,0 -20.15,1.7422 -29.12,5.2187 -8.96,3.4805 -16.7,8.4414 -23.24,14.8829 -6.52,6.4492 -11.61,14.0585 -15.27,22.8593 -3.66,8.7891 -5.49,18.5784 -5.49,29.3714 v 0.519 c 0,9.93 1.7,19.328 5.1,28.207 3.39,8.871 8.13,16.621 14.23,23.242 6.09,6.61 13.36,11.84 21.81,15.668 8.44,3.832 17.79,5.743 28.06,5.743 11.66,0 21.77,-2.082 30.3,-6.27 8.52,-4.172 15.62,-9.781 21.28,-16.84 5.66,-7.051 9.83,-15.152 12.53,-24.281 2.7,-9.148 4.05,-18.668 4.05,-28.602 0,-1.558 -0.04,-3.218 -0.13,-4.957 -0.09,-1.742 -0.22,-3.57 -0.39,-5.4801 h -97.4 c 1.91,-9.0507 5.87,-15.8906 11.88,-20.5 6,-4.6211 13.44,-6.9218 22.32,-6.9218 6.62,0 12.54,1.1328 17.76,3.3906 5.22,2.2617 10.62,5.9219 16.19,10.9687 l 22.72,-20.0976 c -6.62,-8.1914 -14.62,-14.5899 -24.02,-19.1992 -9.4,-4.6133 -20.47,-6.9219 -33.17,-6.9219"
         style="fill:#4f4c4c;fill-opacity:1;fill-rule:nonzero;stroke:none"
         id="path96" />
      <path
         d="m 2427,39.9492 c -9.93,0 -20.07,1.6992 -30.42,5.0899 -10.36,3.4023 -20.24,8.75 -29.64,16.0703 l 16.97,26.1015 c 7.66,-5.5703 15.28,-9.7421 22.85,-12.5312 7.58,-2.7813 14.66,-4.168 21.29,-4.168 5.74,0 9.96,0.9492 12.66,2.8594 2.7,1.918 4.04,4.4375 4.04,7.5781 v 0.5196 c 0,2.0898 -0.78,3.9218 -2.34,5.4921 -1.57,1.5586 -3.71,2.9102 -6.4,4.0391 -2.7,1.1406 -5.79,2.2305 -9.27,3.2695 -3.49,1.0391 -7.14,2.1719 -10.97,3.4024 -4.87,1.3867 -9.79,3.0781 -14.75,5.0901 -4.96,1.988 -9.45,4.609 -13.45,7.828 -4.01,3.211 -7.27,7.18 -9.79,11.879 -2.53,4.703 -3.79,10.453 -3.79,17.242 v 0.519 c 0,7.129 1.35,13.442 4.05,18.93 2.7,5.488 6.35,10.141 10.96,13.969 4.61,3.832 10.01,6.699 16.19,8.621 6.18,1.91 12.84,2.871 19.98,2.871 8.88,0 17.89,-1.441 27.03,-4.312 9.14,-2.868 17.53,-6.829 25.2,-11.879 l -15.15,-27.418 c -6.96,4.008 -13.75,7.179 -20.36,9.527 -6.62,2.359 -12.45,3.531 -17.5,3.531 -4.88,0 -8.53,-0.922 -10.97,-2.75 -2.44,-1.82 -3.65,-4.129 -3.65,-6.922 v -0.519 c 0,-1.91 0.78,-3.609 2.34,-5.09 1.57,-1.48 3.66,-2.867 6.27,-4.18 2.61,-1.3 5.61,-2.558 9.01,-3.781 3.4,-1.219 7.01,-2.437 10.84,-3.656 4.87,-1.57 9.83,-3.442 14.88,-5.613 5.05,-2.18 9.58,-4.84 13.58,-7.969 4,-3.129 7.32,-6.961 9.93,-11.488 2.6,-4.5317 3.91,-10.0122 3.91,-16.4536 v -0.5195 c 0,-7.8398 -1.35,-14.5781 -4.04,-20.2383 -2.7,-5.6601 -6.49,-10.3203 -11.36,-13.9687 -4.88,-3.6524 -10.58,-6.4024 -17.11,-8.2305 -6.53,-1.8203 -13.54,-2.7422 -21.02,-2.7422"
         style="fill:#4f4c4c;fill-opacity:1;fill-rule:nonzero;stroke:none"
         id="path98" />
      <path
         d="m 2510.83,182.531 h 39.69 V 42.5586 h -39.69 z m -1.04,50.66 h 41.77 v -35.25 h -41.77 v 35.25"
         style="fill:#4f4c4c;fill-opacity:1;fill-rule:nonzero;stroke:none"
         id="path100" />
      <path
         d="m 2589.69,233.191 h 39.69 V 42.5586 h -39.69 V 233.191"
         style="fill:#4f4c4c;fill-opacity:1;fill-rule:nonzero;stroke:none"
         id="path102" />
      <path
         d="m 2668.54,182.531 h 39.69 V 42.5586 h -39.69 z m -1.04,50.66 h 41.78 v -35.25 h -41.78 v 35.25"
         style="fill:#4f4c4c;fill-opacity:1;fill-rule:nonzero;stroke:none"
         id="path104" />
      <path
         d="m 2837.49,123.512 c -1.22,8.879 -4.35,16.066 -9.4,21.547 -5.06,5.48 -11.76,8.222 -20.11,8.222 -8.36,0 -15.11,-2.703 -20.24,-8.09 -5.14,-5.402 -8.49,-12.621 -10.05,-21.679 z m -25.6,-84.0823 c -10.44,0 -20.14,1.7422 -29.11,5.2187 -8.96,3.4805 -16.71,8.4414 -23.24,14.8829 -6.53,6.4492 -11.62,14.0585 -15.28,22.8593 -3.65,8.7891 -5.48,18.5784 -5.48,29.3714 v 0.519 c 0,9.93 1.7,19.328 5.09,28.207 3.39,8.871 8.13,16.621 14.23,23.242 6.1,6.61 13.36,11.84 21.81,15.668 8.44,3.832 17.8,5.743 28.07,5.743 11.66,0 21.76,-2.082 30.29,-6.27 8.53,-4.172 15.63,-9.781 21.28,-16.84 5.66,-7.051 9.84,-15.152 12.54,-24.281 2.7,-9.148 4.05,-18.668 4.05,-28.602 0,-1.558 -0.05,-3.218 -0.14,-4.957 -0.09,-1.742 -0.22,-3.57 -0.39,-5.4801 h -97.4 c 1.91,-9.0507 5.88,-15.8906 11.88,-20.5 6,-4.6211 13.45,-6.9218 22.33,-6.9218 6.61,0 12.53,1.1328 17.75,3.3906 5.23,2.2617 10.62,5.9219 16.19,10.9687 l 22.72,-20.0976 c -6.61,-8.1914 -14.62,-14.5899 -24.02,-19.1992 -9.4,-4.6133 -20.46,-6.9219 -33.17,-6.9219"
         style="fill:#4f4c4c;fill-opacity:1;fill-rule:nonzero;stroke:none"
         id="path106" />
      <path
         d="m 2905.64,182.531 h 39.69 V 162.52 c 2.26,2.98 4.74,5.832 7.44,8.55 2.7,2.719 5.7,5.129 9.02,7.231 3.3,2.109 6.95,3.769 10.96,5 4,1.23 8.53,1.84 13.58,1.84 15.15,0 26.85,-4.61 35.13,-13.84 8.26,-9.223 12.4,-21.942 12.4,-38.121 V 42.5586 h -39.7 v 77.8904 c 0,9.379 -2.08,16.461 -6.26,21.231 -4.18,4.769 -10.1,7.16 -17.76,7.16 -7.67,0 -13.71,-2.391 -18.15,-7.16 -4.44,-4.77 -6.66,-11.852 -6.66,-21.231 V 42.5586 h -39.69 V 182.531"
         style="fill:#4f4c4c;fill-opacity:1;fill-rule:nonzero;stroke:none"
         id="path108" />
      <path
         d="m 3134.39,39.4297 c -10.44,0 -20.15,1.9219 -29.12,5.7422 -8.97,3.8281 -16.67,9.0195 -23.11,15.539 -6.44,6.5274 -11.49,14.1875 -15.15,22.9805 -3.65,8.7891 -5.48,18.1486 -5.48,28.0706 v 0.519 c 0,9.93 1.83,19.328 5.48,28.207 3.66,8.871 8.71,16.621 15.15,23.242 6.44,6.61 14.14,11.84 23.11,15.668 8.97,3.832 18.84,5.743 29.64,5.743 13.23,0 24.2,-2.082 32.91,-6.27 8.69,-4.172 16.36,-9.922 22.97,-17.223 l -24.28,-26.128 c -4.53,4.71 -9.19,8.449 -13.97,11.242 -4.79,2.777 -10.75,4.179 -17.89,4.179 -5.05,0 -9.62,-1.011 -13.71,-3.011 -4.09,-2 -7.66,-4.739 -10.7,-8.219 -3.05,-3.492 -5.4,-7.539 -7.05,-12.152 -1.66,-4.61 -2.48,-9.528 -2.48,-14.75 v -0.528 c 0,-5.402 0.82,-10.441 2.48,-15.1404 1.65,-4.6992 4.04,-8.789 7.17,-12.2695 3.14,-3.4922 6.88,-6.2305 11.23,-8.2305 4.35,-2 9.23,-3 14.63,-3 6.61,0 12.4,1.3399 17.36,4.0391 4.97,2.6992 9.88,6.3086 14.76,10.8398 l 23.24,-23.5 c -6.79,-7.4882 -14.54,-13.6211 -23.24,-18.4101 -8.71,-4.7891 -20.03,-7.1797 -33.95,-7.1797"
         style="fill:#4f4c4c;fill-opacity:1;fill-rule:nonzero;stroke:none"
         id="path110" />
      <path
         d="m 3219.26,182.531 h 39.69 V 42.5586 h -39.69 z m -1.04,50.66 h 41.77 v -35.25 h -41.77 v 35.25"
         style="fill:#4f4c4c;fill-opacity:1;fill-rule:nonzero;stroke:none"
         id="path112" />
      <path
         d="m 3347.99,67.3711 c 9.4,0 16.93,2.2578 22.58,6.7891 5.66,4.5195 8.5,10.4414 8.5,17.7617 v 7.0469 c -3.49,1.5622 -7.36,2.8202 -11.63,3.7932 -4.26,0.949 -8.83,1.429 -13.71,1.429 -8.53,0 -15.23,-1.652 -20.1,-4.9605 -4.88,-3.3086 -7.31,-8.1016 -7.31,-14.3594 v -0.5195 c 0,-5.4024 1.99,-9.5821 6,-12.543 4,-2.957 9.23,-4.4375 15.67,-4.4375 z m -12.01,-27.4219 c -6.62,0 -12.84,0.9219 -18.67,2.7422 -5.84,1.8281 -10.93,4.5781 -15.28,8.2305 -4.35,3.6484 -7.79,8.1367 -10.31,13.4492 -2.53,5.3086 -3.79,11.4492 -3.79,18.3984 v 0.5313 c 0,7.6601 1.39,14.2695 4.18,19.8472 2.78,5.563 6.66,10.18 11.62,13.84 4.96,3.653 10.87,6.403 17.75,8.223 6.88,1.828 14.5,2.738 22.85,2.738 7.14,0 13.37,-0.519 18.67,-1.558 5.31,-1.039 10.49,-2.442 15.55,-4.18 v 2.348 c 0,8.363 -2.53,14.711 -7.58,19.062 -5.05,4.348 -12.53,6.527 -22.46,6.527 -7.66,0 -14.4,-0.648 -20.23,-1.957 -5.84,-1.312 -11.98,-3.171 -18.42,-5.613 l -9.92,30.293 c 7.66,3.301 15.67,6 24.03,8.098 8.35,2.09 18.45,3.133 30.28,3.133 10.98,0 20.33,-1.352 28.08,-4.051 7.74,-2.699 14.14,-6.571 19.19,-11.621 5.23,-5.219 9.05,-11.621 11.49,-19.192 2.44,-7.566 3.66,-16.058 3.66,-25.457 V 42.5586 h -38.39 V 57.7109 C 3373.4,52.3086 3367.57,48 3360.79,44.7813 c -6.79,-3.211 -15.07,-4.8321 -24.81,-4.8321"
         style="fill:#4f4c4c;fill-opacity:1;fill-rule:nonzero;stroke:none"
         id="path114" />
    </g>
  </g>
</svg>
